<?xml version="1.0" encoding="UTF-8"?>
<svg width="15px" height="12px" viewBox="0 0 15 12" version="1.1" xmlns="http://www.w3.org/2000/svg" xmlns:xlink="http://www.w3.org/1999/xlink">
    <!-- Generator: Sketch 47.1 (45422) - http://www.bohemiancoding.com/sketch -->
    <title>cart</title>
    <desc>Created with Sketch.</desc>
    <defs></defs>
    <g id="Symbols" stroke="none" stroke-width="1" fill="none" fill-rule="evenodd">
        <g id="Header" transform="translate(-1094.000000, -13.000000)" fill="#959595">
            <g id="aux-navigation">
                <g transform="translate(408.000000, 0.000000)">
                    <g id="links-right" transform="translate(499.000000, 13.000000)">
                        <g id="Shop-Online" transform="translate(187.000000, 0.000000)">
                            <path d="M14.341,1.31305733 L3.491,1.31305733 C3.491,1.31305733 5.461,6.57205733 5.491,6.67105733 C5.542,7.00705733 5.856,7.23905733 6.193,7.18705733 C6.195,7.18705733 6.198,7.18605733 6.201,7.18605733 L13.461,7.18605733 C13.461,7.18605733 14.151,4.71805733 14.921,2.37905733 C14.961,2.25505733 14.988,2.12705733 15.001,1.99805733 C15.012,1.62905733 14.722,1.32105733 14.353,1.31005733 L14.341,1.31005733 L14.341,1.31305733 Z M13.351,8.81305733 L4.921,8.81305733 C4.739,8.81105733 4.577,8.69805733 4.511,8.52805733 L1.651,0.881057327 L0.441,0.881057327 C0.198,0.881057327 0,0.684057327 0,0.441057327 C0,0.197057327 0.198,5.73272389e-05 0.441,5.73272389e-05 L1.951,5.73272389e-05 C2.135,-0.00294267276 2.3,0.112057327 2.361,0.285057327 L5.231,7.93305733 L13.351,7.93305733 C13.594,7.93305733 13.791,8.13105733 13.79,8.37405733 C13.79,8.61605733 13.594,8.81305733 13.351,8.81305733 L13.351,8.81305733 Z M11.711,9.06005733 C10.9,9.05605733 10.239,9.70905733 10.235,10.5200573 C10.231,11.3310573 10.884,11.9920573 11.695,11.9960573 C12.506,12.0000573 13.166,11.3470573 13.171,10.5360573 L13.171,10.5280573 C13.17,9.72105733 12.518,9.06505733 11.711,9.06005733 L11.711,9.06005733 Z M6.001,9.06005733 C5.19,9.05605733 4.529,9.70905733 4.525,10.5200573 C4.521,11.3310573 5.174,11.9920573 5.985,11.9960573 C6.796,12.0000573 7.456,11.3470573 7.461,10.5360573 L7.461,10.5280573 C7.461,9.72105733 6.808,9.06505733 6.001,9.06005733 L6.001,9.06005733 Z" id="cart"></path>
                        </g>
                    </g>
                </g>
            </g>
        </g>
    </g>
</svg>