<?xml version="1.0" encoding="UTF-8"?>
<svg width="8px" height="12px" viewBox="0 0 8 12" version="1.1" xmlns="http://www.w3.org/2000/svg" xmlns:xlink="http://www.w3.org/1999/xlink">
    <!-- Generator: Sketch 47.1 (45422) - http://www.bohemiancoding.com/sketch -->
    <title>user</title>
    <desc>Created with Sketch.</desc>
    <defs></defs>
    <g id="Symbols" stroke="none" stroke-width="1" fill="none" fill-rule="evenodd">
        <g id="Header" transform="translate(-907.000000, -14.000000)" fill="#959595">
            <g id="aux-navigation">
                <g transform="translate(408.000000, 0.000000)">
                    <g id="links-right" transform="translate(499.000000, 13.000000)">
                        <g id="My-Account">
                            <path d="M6.87451789,6.29948794 L6.03157668,6.06978645 C4.88728397,7.13399974 3.11500006,7.13399974 1.97070735,6.06978645 L1.12776613,6.29948794 C0.231087413,6.55763868 -0.0628883372,6.94433797 0.0108690195,7.44904902 L0.681007289,11.8312897 C0.685221995,12.4519052 1.17834261,12.9587236 1.7979044,12.9808508 L6.20016492,12.9808508 C6.82078039,12.9587236 7.313901,12.4519052 7.31811571,11.8312897 L7.98825398,7.44904902 C8.06517237,6.94433797 7.77225029,6.55763868 6.87451789,6.29948794 M4.00219569,6.17831514 C5.43098106,6.25417984 6.65113847,5.15730258 6.72700318,3.72746354 C6.80181421,2.29867818 5.70493695,1.07957444 4.27615159,1.00370973 C2.84736622,0.927845018 1.62720881,2.02472228 1.5513441,3.45350765 C1.54923674,3.49986941 1.54818307,3.5451775 1.54818307,3.59048559 C1.5155191,4.9813386 2.61134268,6.13722175 4.00219569,6.17831514" id="user"></path>
                        </g>
                    </g>
                </g>
            </g>
        </g>
    </g>
</svg>